<?xml version="1.0" encoding="UTF-8" standalone="no"?>
<svg
   xmlns:dc="http://purl.org/dc/elements/1.1/"
   xmlns:cc="http://creativecommons.org/ns#"
   xmlns:rdf="http://www.w3.org/1999/02/22-rdf-syntax-ns#"
   xmlns:svg="http://www.w3.org/2000/svg"
   xmlns="http://www.w3.org/2000/svg"
   xmlns:sodipodi="http://sodipodi.sourceforge.net/DTD/sodipodi-0.dtd"
   xmlns:inkscape="http://www.inkscape.org/namespaces/inkscape"
   width="42px"
   height="42px"
   viewBox="0 0 42 42"
   version="1.1"
   id="svg4199"
   inkscape:version="0.91 r13725"
   sodipodi:docname="icon.svg"
   inkscape:export-filename="/home/hogne/Projects/friendup/interfaces/web_desktop/apps/Photopea/icon.png"
   inkscape:export-xdpi="548.57141"
   inkscape:export-ydpi="548.57141">
  <metadata
     id="metadata4222">
    <rdf:RDF>
      <cc:Work
         rdf:about="">
        <dc:format>image/svg+xml</dc:format>
        <dc:type
           rdf:resource="http://purl.org/dc/dcmitype/StillImage" />
      </cc:Work>
    </rdf:RDF>
  </metadata>
  <sodipodi:namedview
     pagecolor="#ffffff"
     bordercolor="#666666"
     borderopacity="1"
     objecttolerance="10"
     gridtolerance="10"
     guidetolerance="10"
     inkscape:pageopacity="0"
     inkscape:pageshadow="2"
     inkscape:window-width="1920"
     inkscape:window-height="1019"
     id="namedview4220"
     showgrid="false"
     inkscape:zoom="11.313708"
     inkscape:cx="5.7797039"
     inkscape:cy="23.740543"
     inkscape:window-x="0"
     inkscape:window-y="30"
     inkscape:window-maximized="1"
     inkscape:current-layer="svg4199" />
  <!-- Generator: Sketch 48.2 (47327) - http://www.bohemiancoding.com/sketch -->
  <title
     id="title4201">FriendChat</title>
  <desc
     id="desc4203">Created with Sketch.</desc>
  <defs
     id="defs4205" />
  <path
     d="m 2,1 38,0 c 0.552285,0 1,0.4477152 1,1 l 0,38 c 0,0.552285 -0.447715,1 -1,1 L 2,41 C 1.4477152,41 1,40.552285 1,40 L 1,2 C 1,1.4477152 1.4477152,1 2,1 Z"
     id="rect4177-7"
     inkscape:connector-curvature="0"
     style="fill:#18a497;fill-rule:nonzero;stroke:none;stroke-width:2;fill-opacity:1;stroke-miterlimit:4;stroke-dasharray:none;stroke-linejoin:round"
     inkscape:export-xdpi="289.79785"
     inkscape:export-ydpi="289.79785" />
  <path
     inkscape:connector-curvature="0"
     id="path4870"
     d="m 7.7138478,41 c 0,0 0.024303,-1.120457 0.1428059,-10.261861 L 7.9886065,20.559563 C 8.053864,8.8310606 22.229861,5.4494291 29.59724,11.134934 c 3.925594,2.81491 5.631126,8.925708 3.727792,13.209552 -1.260754,2.837581 -3.085095,4.7785 -5.586204,5.943168 -6.329262,2.947288 -12.182638,-0.819555 -11.007482,-7.083682 0.646598,-3.446662 5.181054,-6.361773 7.515981,-4.83187 1.962327,1.285766 1.221348,3.426567 -1.431459,4.13569 -1.698776,0.454102 -2.354249,2.317803 -1.245915,3.542499 1.014078,1.120543 2.102897,1.123822 4.397055,0.01329 3.434099,-1.662418 5.091819,-6.439965 2.740516,-9.212827 0,0 -1.980814,-4.464813 -7.52169,-4.400255 -7.154691,0.08336 -9.098443,5.992872 -8.962751,8.186401 0.06145,0.993428 -0.06877,5.411161 -0.06877,11.185549 l 0,9.135927 z"
     style="fill:#0f1f24"
     sodipodi:nodetypes="csccsssssscsssscc"
     inkscape:export-xdpi="289.79785"
     inkscape:export-ydpi="289.79785" />
</svg>
